<svg width="80" height="80" viewBox="0 0 80 80" fill="none" xmlns="http://www.w3.org/2000/svg">
<g clip-path="url(#clip0_530_1328)">
<mask id="mask0_530_1328" style="mask-type:luminance" maskUnits="userSpaceOnUse" x="0" y="0" width="80" height="80">
<path d="M80 40C80 17.9086 62.0914 0 40 0C17.9086 0 0 17.9086 0 40C0 62.0914 17.9086 80 40 80C62.0914 80 80 62.0914 80 40Z" fill="white"/>
</mask>
<g mask="url(#mask0_530_1328)">
<path d="M62.8668 24.0334C62.5569 23.7209 62.1883 23.4729 61.7821 23.3037C61.3759 23.1345 60.9402 23.0474 60.5002 23.0474C60.0601 23.0474 59.6244 23.1345 59.2182 23.3037C58.812 23.4729 58.4434 23.7209 58.1335 24.0334L33.3002 48.9L22.8668 38.4334C22.5451 38.1226 22.1653 37.8782 21.7491 37.7142C21.3329 37.5502 20.8885 37.4697 20.4412 37.4775C19.994 37.4852 19.5526 37.581 19.1423 37.7593C18.7321 37.9376 18.361 38.195 18.0502 38.5167C17.7394 38.8384 17.495 39.2182 17.331 39.6344C17.167 40.0506 17.0865 40.495 17.0943 40.9423C17.102 41.3895 17.1978 41.8309 17.3761 42.2412C17.5544 42.6514 17.8118 43.0226 18.1335 43.3334L30.9335 56.1334C31.2434 56.4458 31.612 56.6938 32.0182 56.863C32.4244 57.0322 32.8601 57.1193 33.3002 57.1193C33.7402 57.1193 34.1759 57.0322 34.5821 56.863C34.9883 56.6938 35.357 56.4458 35.6668 56.1334L62.8668 28.9334C63.2052 28.6212 63.4752 28.2424 63.6599 27.8207C63.8446 27.399 63.9399 26.9437 63.9399 26.4834C63.9399 26.023 63.8446 25.5677 63.6599 25.146C63.4752 24.7243 63.2052 24.3455 62.8668 24.0334Z" fill="#0071FE"/>
</g>
<path d="M78 40C78 19.0132 60.9868 2 40 2C19.0132 2 2 19.0132 2 40C2 60.9868 19.0132 78 40 78C60.9868 78 78 60.9868 78 40Z" stroke="#0071FE" stroke-width="4"/>
</g>
<defs>
<clipPath id="clip0_530_1328">
<rect width="80" height="80" fill="white"/>
</clipPath>
</defs>
</svg>
